<svg width="468" height="204" viewBox="0 0 468 204" fill="none" xmlns="http://www.w3.org/2000/svg">
<path d="M69.6155 26.0187C69.5355 26.0454 69.4122 26.152 69.2455 26.3387C65.5589 30.5187 62.3355 33.7087 59.5755 35.9087C58.1489 37.042 56.7889 37.782 55.4955 38.1287C55.2623 38.1912 55.0169 38.1932 54.7826 38.1345C54.5484 38.0757 54.333 37.9582 54.1568 37.7931C53.9806 37.6279 53.8494 37.4205 53.7757 37.1905C53.702 36.9605 53.6882 36.7155 53.7355 36.4787C54.9355 30.4587 57.0255 24.2754 60.0055 17.9287C60.0855 17.7551 60.1213 17.5643 60.1098 17.3736C60.0982 17.1829 60.0397 16.9983 59.9394 16.8364C59.8392 16.6746 59.7003 16.5407 59.5355 16.4468C59.3707 16.3529 59.1851 16.302 58.9955 16.2987C56.7089 16.252 54.6122 16.942 52.7055 18.3687C48.6789 21.3754 44.6755 24.8554 40.6955 28.8087C40.4555 29.0487 40.1722 29.1687 39.8455 29.1687C39.7528 29.1684 39.6614 29.1463 39.5788 29.1041C39.4963 29.0618 39.4248 29.0007 39.3702 28.9257C39.3157 28.8507 39.2796 28.7639 39.2649 28.6724C39.2502 28.5808 39.2572 28.487 39.2855 28.3987C41.0789 22.592 43.1289 16.992 45.4355 11.5987C45.7955 10.772 47.1322 9.30538 49.4455 7.19872C49.578 7.07855 49.6844 6.93228 49.7584 6.7689C49.8323 6.60553 49.8722 6.42851 49.8755 6.24872C49.8889 3.42205 48.8955 1.69871 46.8955 1.07871C46.5087 0.959681 46.0928 0.976048 45.7165 1.12512C45.3402 1.27418 45.0259 1.54705 44.8255 1.89871L40.4355 9.49872C40.257 9.80997 39.987 10.0591 39.6618 10.2128C39.3365 10.3665 38.9714 10.4174 38.6155 10.3587L28.2155 8.65872C27.878 8.6025 27.571 8.42953 27.348 8.16999C27.125 7.91046 27.0003 7.58085 26.9955 7.23871C26.9822 6.03871 26.5822 5.09871 25.7955 4.41871C25.6688 4.30748 25.5176 4.22777 25.3543 4.18606C25.1909 4.14435 25.02 4.14184 24.8555 4.17872C23.4355 4.50538 22.1122 5.46538 20.8855 7.05872C20.7215 7.26876 20.5054 7.4326 20.2583 7.53426C20.0111 7.63592 19.7414 7.67191 19.4755 7.63872C15.6755 7.12872 -0.584466 6.71872 1.12553 14.4787C1.4803 16.0512 2.39363 17.4408 3.69553 18.3887L3.77554 18.4487C3.9401 18.5682 4.1348 18.6392 4.33764 18.6538C4.54047 18.6684 4.74335 18.626 4.92332 18.5313C5.1033 18.4367 5.25321 18.2935 5.35609 18.1181C5.45898 17.9427 5.51074 17.742 5.50553 17.5387C5.31886 15.1521 6.01887 13.5554 7.60554 12.7487C9.86554 11.602 13.5655 11.2854 18.7055 11.7987C18.7868 11.8079 18.8652 11.8342 18.9354 11.8757C19.0056 11.9173 19.066 11.9732 19.1125 12.0396C19.159 12.106 19.1905 12.1813 19.2048 12.2606C19.2191 12.3398 19.216 12.421 19.1955 12.4987C18.7489 14.292 18.3889 15.4421 18.1155 15.9487C14.4022 22.8954 11.7289 29.6287 10.0955 36.1487C10.0264 36.4288 9.89893 36.6912 9.72144 36.9187C9.54394 37.1461 9.32044 37.3336 9.06554 37.4687C7.32554 38.3887 5.17554 39.3187 4.31554 41.1487C4.24368 41.3008 4.21678 41.4696 4.23808 41.6347C4.25938 41.7998 4.32796 41.954 4.43553 42.0787C5.70553 43.5887 7.41553 43.9487 9.43553 43.1887C12.6955 41.9687 16.7855 42.4087 20.1855 40.8587C20.3075 40.804 20.4102 40.7145 20.4807 40.6012C20.5513 40.4879 20.5867 40.3559 20.5824 40.2216C20.5781 40.0873 20.5344 39.9566 20.4568 39.8459C20.3791 39.7351 20.2708 39.6492 20.1455 39.5987L16.2355 38.0987C15.8117 37.9347 15.4653 37.6164 15.2652 37.2069C15.0651 36.7975 15.026 36.3269 15.1555 35.8887C17.5755 27.8387 23.0055 19.9087 26.0355 13.0987C26.0624 13.0376 26.1077 12.9865 26.1651 12.9524C26.2225 12.9183 26.289 12.9031 26.3555 12.9087L38.1855 13.9787C38.2469 13.9825 38.3065 14.0007 38.3596 14.032C38.4128 14.0632 38.458 14.1067 38.4919 14.1589C38.5257 14.2111 38.5473 14.2708 38.5548 14.3332C38.5624 14.3956 38.5558 14.4591 38.5355 14.5187C36.3222 20.9854 34.0055 28.1154 31.5855 35.9087C30.9555 37.9387 29.5755 39.6987 29.1655 40.8087C29.009 41.2312 29.0215 41.6977 29.2003 42.1113C29.3791 42.5248 29.7105 42.8534 30.1255 43.0287L30.9555 43.3887C31.6272 43.6725 32.3785 43.7054 33.0723 43.4814C33.7662 43.2575 34.3565 42.7916 34.7355 42.1687C39.0022 35.1754 44.3055 29.342 50.6455 24.6687C50.7406 24.5969 50.8561 24.5573 50.9753 24.5557C51.0944 24.5541 51.2109 24.5905 51.3079 24.6596C51.405 24.7288 51.4774 24.827 51.5147 24.9402C51.5521 25.0533 51.5524 25.1754 51.5155 25.2887C50.0255 30.0787 48.0555 36.8387 49.3655 41.7487C49.4608 42.1033 49.625 42.4356 49.8489 42.7264C50.0727 43.0172 50.3517 43.2607 50.6696 43.4429C50.9876 43.6252 51.3383 43.7425 51.7015 43.7881C52.0646 43.8337 52.4331 43.8067 52.7855 43.7087C58.7055 42.0587 68.7155 33.2987 70.4955 26.8687C70.5306 26.7491 70.5321 26.6223 70.5 26.5019C70.4678 26.3814 70.4032 26.2719 70.313 26.1847C70.2228 26.0976 70.1103 26.0361 69.9875 26.0069C69.8647 25.9777 69.7362 25.9818 69.6155 26.0187Z" stroke="#D24686" stroke-width="2"/>
<path d="M118.655 11.2749L119.245 4.70494C119.295 4.12143 119.113 3.54198 118.738 3.09385C118.362 2.64573 117.826 2.36557 117.245 2.31494L116.475 2.24494C115.82 2.18577 115.168 2.3767 114.648 2.7793C114.129 3.1819 113.781 3.76631 113.675 4.41494C113.048 8.32827 114.271 10.8849 117.345 12.0849C117.483 12.1396 117.632 12.1611 117.78 12.1478C117.928 12.1345 118.071 12.0867 118.198 12.0082C118.325 11.9297 118.432 11.8226 118.512 11.6954C118.591 11.5681 118.64 11.4242 118.655 11.2749Z" stroke="#D24686" stroke-width="2"/>
<path d="M155.026 34.8117C155.024 34.6991 154.993 34.5889 154.935 34.4921C154.878 34.3954 154.795 34.3156 154.697 34.2609C154.599 34.2061 154.487 34.1782 154.375 34.1801C154.262 34.182 154.152 34.2136 154.056 34.2717C149.869 36.8651 146.752 38.0951 144.706 37.9617C144.336 37.9355 143.985 37.786 143.711 37.5374C143.437 37.2888 143.256 36.9557 143.196 36.5917C142.616 33.1417 145.366 26.5817 146.566 23.9317C146.666 23.7064 146.823 23.5106 147.023 23.3634C147.223 23.2163 147.458 23.1227 147.706 23.0917C152.092 22.6051 156.356 21.7851 160.496 20.6317C161.262 20.4184 161.729 19.9817 161.896 19.3217C161.915 19.2425 161.917 19.1598 161.9 19.08C161.883 19.0001 161.848 18.9251 161.798 18.8606C161.748 18.7961 161.684 18.7438 161.611 18.7076C161.538 18.6715 161.457 18.6523 161.376 18.6517H149.256C149.161 18.6524 149.067 18.629 148.984 18.5837C148.901 18.5384 148.83 18.4727 148.779 18.3928C148.728 18.3128 148.699 18.2212 148.693 18.1266C148.687 18.032 148.705 17.9374 148.746 17.8517L152.256 10.3817C152.302 10.2825 152.329 10.1806 152.336 10.0817C152.409 9.10172 152.256 8.32505 151.876 7.75172C151.603 7.33858 151.195 7.03339 150.724 6.88909C150.253 6.74478 149.747 6.77048 149.296 6.96172C148.582 7.25505 147.856 7.76172 147.116 8.48172C146.865 8.73236 146.671 9.02866 146.546 9.35172L143.096 18.3017C142.992 18.5776 142.82 18.8229 142.596 19.0152C142.372 19.2074 142.104 19.3403 141.816 19.4017C139.626 19.8917 136.616 19.9017 135.506 21.9317C135.373 22.175 135.313 22.4487 135.332 22.7251C135.35 23.0016 135.448 23.2708 135.613 23.5055C135.779 23.7402 136.007 23.932 136.274 24.0613C136.542 24.1906 136.839 24.2528 137.136 24.2417C138.149 24.2084 139.246 24.0817 140.426 23.8617C140.502 23.8476 140.581 23.8536 140.655 23.8791C140.728 23.9046 140.794 23.9487 140.845 24.0071C140.896 24.0656 140.932 24.1363 140.948 24.2125C140.964 24.2886 140.959 24.3676 140.936 24.4417C139.382 29.0551 138.109 32.7717 137.116 35.5917C136.056 38.6217 135.666 40.5817 138.306 42.3717C142.376 45.1417 151.286 39.2117 154.486 36.4317C154.655 36.2811 154.791 36.0972 154.884 35.8921C154.977 35.687 155.025 35.4654 155.026 35.2417V34.8117Z" stroke="#D24686" stroke-width="2"/>
<path d="M395.786 68.5156C395.36 68.7823 394.983 68.9056 394.656 68.8856" stroke="#D24686" stroke-width="2"/>
<path d="M394.656 68.8925C395.756 63.1658 396.759 56.5258 397.666 48.9725C398.673 40.5991 396.429 33.5525 390.936 27.8325C386.783 23.5125 381.666 21.3092 375.586 21.2225C362.546 21.0325 349.796 28.1025 344.106 40.0725C340.496 47.6525 340.796 54.6225 346.726 60.5925C346.987 60.8531 347.322 61.0277 347.686 61.0925C351.313 61.7192 354.463 62.0192 357.136 61.9925C362.716 61.9325 367.206 61.7925 372.026 63.3925C377.819 65.3125 382.596 68.8258 386.356 73.9325" stroke="#F1C9DC" stroke-width="2"/>
<path d="M386.355 73.9297C391.469 81.2364 392.389 89.5764 389.115 98.9497" stroke="#D24686" stroke-width="2"/>
<path d="M389.115 98.9453C376.788 115.532 362.651 130.632 346.705 144.245C346.666 144.278 346.638 144.322 346.625 144.372C346.612 144.421 346.615 144.473 346.632 144.521C346.65 144.569 346.681 144.61 346.723 144.639C346.764 144.669 346.814 144.685 346.865 144.685H353.385C354.059 144.685 354.707 144.423 355.195 143.955C364.308 135.222 372.851 125.962 380.825 116.175C383.158 113.315 387.061 108.182 392.535 100.775" stroke="white" stroke-width="2"/>
<path d="M392.535 100.781C397.742 97.1674 402.268 95.314 406.115 95.2207C407.208 95.194 409.888 95.4407 414.155 95.9607" stroke="#D24686" stroke-width="2"/>
<path d="M414.155 95.9563C424.165 100.006 431.845 109.336 433.005 120.196C433.118 121.29 433.269 122.88 433.455 124.966C433.468 125.135 433.518 125.299 433.6 125.446C433.683 125.593 433.798 125.719 433.935 125.816C443.115 132.336 451.825 129.156 458.805 121.166C464.692 114.426 467.318 106.113 466.685 96.2263C465.975 85.1163 460.295 76.3763 449.385 73.5163C444.378 72.203 439.695 72.343 435.335 73.9363C430.842 75.5763 426.528 77.453 422.395 79.5663C422.365 79.5783 422.332 79.5796 422.301 79.5698C422.27 79.5601 422.244 79.5399 422.226 79.5128C422.208 79.4857 422.2 79.4533 422.204 79.4211C422.207 79.3889 422.222 79.3589 422.245 79.3363C427.592 74.7696 431.125 71.723 432.845 70.1963C435.432 67.9096 437.402 65.723 438.755 63.6363C444.685 54.5063 449.305 43.0163 448.645 31.7363C448.519 29.6296 448.212 26.943 447.725 23.6763C447.619 22.9533 447.616 22.2227 447.715 21.5063L448.915 13.1263C448.929 13.0396 448.916 12.9508 448.879 12.8712C448.842 12.7917 448.782 12.725 448.707 12.6799C448.632 12.6347 448.545 12.6131 448.457 12.6178C448.369 12.6225 448.285 12.6533 448.215 12.7063L441.105 17.9763C440.662 18.3008 440.165 18.5508 439.635 18.7163C433.035 20.6963 426.925 22.4463 421.075 26.9063C413.668 32.553 407.915 39.3196 403.815 47.2063C401.895 50.8996 399.218 58.003 395.785 68.5163" stroke="#F1C9DC" stroke-width="2"/>
<path d="M414.156 95.9591C417.436 87.1891 418.686 76.7291 410.566 70.0391" stroke="#E288B1" stroke-width="2"/>
<path d="M410.566 70.0406L415.586 58.1306C415.594 58.1151 415.598 58.0981 415.599 58.0806C415.599 58.0631 415.596 58.0454 415.59 58.0287C415.583 58.0119 415.573 57.9964 415.561 57.9829C415.548 57.9695 415.533 57.9585 415.516 57.9506C415.482 57.9356 415.445 57.9334 415.41 57.9445C415.375 57.9555 415.345 57.979 415.326 58.0106L409.086 69.1606" stroke="#F1C9DC" stroke-width="2"/>
<path d="M409.085 69.161C405.058 67.101 400.625 66.8877 395.785 68.521" stroke="#E288B1" stroke-width="2"/>
<path d="M410.565 70.0391C407.285 76.3924 405.142 80.4591 404.135 82.2391C401.795 86.3657 397.928 92.5457 392.535 100.779" stroke="#F1C9DC" stroke-width="2"/>
<path d="M389.117 98.9463C396.511 89.4396 403.167 79.5096 409.087 69.1562" stroke="#F1C9DC" stroke-width="2"/>
<path d="M394.655 68.8906L386.355 73.9306" stroke="#E288B1" stroke-width="2"/>
<path d="M175.976 15.3024C172.646 13.5224 171.236 16.8324 168.556 17.3324C165.966 17.8024 166.236 21.0524 164.796 22.9924C161.376 27.6024 155.636 37.5824 161.116 42.3624C162.009 43.1424 163.269 43.4224 164.896 43.2024C175.126 41.8024 187.326 26.8424 177.276 18.0724C177.041 17.8703 176.874 17.598 176.796 17.2924L176.456 15.9324C176.424 15.7998 176.365 15.6753 176.282 15.5668C176.2 15.4583 176.095 15.3683 175.976 15.3024Z" stroke="#D24686" stroke-width="2"/>
<path d="M83.5536 34.4824C83.2336 37.9124 84.1936 42.5324 88.2136 43.0824C93.4136 43.7824 104.414 31.4324 104.424 26.2824C104.425 26.158 104.385 26.0365 104.312 25.936C104.239 25.8355 104.135 25.7612 104.016 25.7242C103.897 25.6872 103.77 25.6894 103.652 25.7305C103.535 25.7716 103.433 25.8494 103.364 25.9524C100.934 29.4324 95.3236 36.6424 91.4636 37.8424C91.1616 37.935 90.8425 37.9582 90.5302 37.9103C90.218 37.8625 89.9205 37.7448 89.66 37.566C89.3996 37.3872 89.1828 37.152 89.0258 36.8778C88.8689 36.6036 88.7759 36.2976 88.7536 35.9824C88.4069 30.7491 89.4236 25.6591 91.8036 20.7124C92.4636 19.3424 92.2936 18.5424 91.2836 17.4724C91.0636 17.2391 90.3969 17.2258 89.2836 17.4324C88.5769 17.5724 87.9636 17.2724 87.4436 16.5324C85.9436 14.4224 80.8436 17.6124 79.4636 18.8024C73.6636 23.7824 69.6636 29.7858 67.4636 36.8124C66.7169 39.1791 67.3136 41.0824 69.2536 42.5224C72.8036 45.1524 80.4636 36.7824 82.8336 34.1624C82.8905 34.097 82.9664 34.0519 83.0507 34.0334C83.135 34.0149 83.2232 34.0241 83.303 34.0595C83.3827 34.0949 83.4498 34.1549 83.4948 34.2308C83.5398 34.3067 83.5604 34.3948 83.5536 34.4824Z" stroke="#D24686" stroke-width="2"/>
<path d="M126.686 25.5549C126.621 25.484 126.542 25.4271 126.454 25.3879C126.366 25.3487 126.271 25.3279 126.175 25.327C126.079 25.3261 125.985 25.3449 125.897 25.3824C125.809 25.4199 125.731 25.4752 125.666 25.5449C122.206 29.2516 118.363 32.7282 114.136 35.9749C112.729 37.0616 111.413 37.7482 110.186 38.0349C109.943 38.0925 109.69 38.0857 109.451 38.0151C109.211 37.9444 108.994 37.8124 108.821 37.632C108.648 37.4516 108.524 37.2289 108.462 36.9857C108.399 36.7426 108.401 36.4873 108.466 36.2449C109.979 30.6716 112.123 25.3316 114.896 20.2249C115.796 18.5549 115.656 17.3749 114.346 16.1649C114.082 15.9172 113.736 15.7753 113.373 15.7661C113.01 15.7569 112.655 15.881 112.376 16.1149C109.243 18.7416 107.209 21.8582 106.276 25.4649C105.326 29.1649 104.296 32.0949 103.216 35.7949C102.383 38.6082 103.009 40.9016 105.096 42.6749C107.086 44.3649 111.536 42.2249 113.236 41.0949C119.136 37.1816 123.563 32.7016 126.516 27.6549C127.056 26.7282 127.113 26.0282 126.686 25.5549Z" stroke="#D24686" stroke-width="2"/>
<path d="M379.884 105.768C385.084 100.438 389.414 91.798 387.394 84.148C384.084 71.648 371.414 65.538 359.034 66.188C348.074 66.778 338.884 66.048 331.714 56.478C331.681 56.433 331.634 56.4002 331.581 56.3848C331.528 56.3694 331.471 56.3722 331.419 56.3929C331.367 56.4135 331.324 56.4508 331.296 56.4988C331.268 56.5468 331.257 56.6028 331.264 56.658C331.664 59.7046 332.487 62.2746 333.734 64.368C339.754 74.428 349.314 77.408 360.104 80.168C365.271 81.4946 368.754 82.7746 370.554 84.008C375.794 87.6013 378.861 92.8713 379.754 99.8179C380.014 101.888 379.444 104.008 379.414 105.568C379.41 105.624 379.423 105.68 379.453 105.728C379.482 105.776 379.526 105.814 379.577 105.836C379.629 105.858 379.687 105.863 379.742 105.851C379.796 105.839 379.846 105.81 379.884 105.768Z" stroke="white" stroke-width="2"/>
<path d="M136.904 106.885C136.995 106.885 137.081 106.849 137.145 106.785C137.209 106.722 137.244 106.635 137.244 106.545V96.915C137.244 96.8248 137.209 96.7383 137.145 96.6746C137.081 96.6108 136.995 96.575 136.904 96.575H99.0644C98.9742 96.575 98.8877 96.5392 98.824 96.4754C98.7602 96.4116 98.7244 96.3252 98.7244 96.235V72.755C98.7244 72.7103 98.7332 72.6661 98.7503 72.6249C98.7673 72.5836 98.7924 72.5462 98.824 72.5146C98.8555 72.483 98.893 72.458 98.9343 72.4409C98.9755 72.4238 99.0197 72.415 99.0644 72.415H139.764C139.855 72.415 139.941 72.3792 140.005 72.3154C140.069 72.2517 140.104 72.1652 140.104 72.075V62.465C140.104 62.3748 140.069 62.2883 140.005 62.2246C139.941 62.1608 139.855 62.125 139.764 62.125H88.0744C87.9842 62.125 87.8977 62.1608 87.834 62.2246C87.7702 62.2883 87.7344 62.3748 87.7344 62.465V142.825C87.7344 142.915 87.7702 143.002 87.834 143.065C87.8977 143.129 87.9842 143.165 88.0744 143.165H141.844C141.935 143.165 142.021 143.129 142.085 143.065C142.149 143.002 142.184 142.915 142.184 142.825V133.225C142.184 133.135 142.149 133.048 142.085 132.985C142.021 132.921 141.935 132.885 141.844 132.885H99.0644C98.9742 132.885 98.8877 132.849 98.824 132.785C98.7602 132.722 98.7244 132.635 98.7244 132.545V107.225C98.7244 107.135 98.7602 107.048 98.824 106.985C98.8877 106.921 98.9742 106.885 99.0644 106.885H136.904Z" stroke="white" stroke-width="2"/>
<path d="M183.315 62.5772C183.315 62.4552 183.266 62.3382 183.18 62.2519C183.094 62.1657 182.977 62.1172 182.855 62.1172H172.765C172.643 62.1172 172.526 62.1657 172.439 62.2519C172.353 62.3382 172.305 62.4552 172.305 62.5772V142.707C172.305 142.829 172.353 142.946 172.439 143.032C172.526 143.119 172.643 143.167 172.765 143.167H220.105C220.227 143.167 220.344 143.119 220.43 143.032C220.516 142.946 220.565 142.829 220.565 142.707V133.347C220.565 133.225 220.516 133.108 220.43 133.022C220.344 132.936 220.227 132.887 220.105 132.887H183.775C183.714 132.887 183.654 132.875 183.599 132.852C183.543 132.829 183.492 132.795 183.449 132.752C183.407 132.71 183.373 132.659 183.35 132.603C183.327 132.547 183.315 132.488 183.315 132.427V62.5772Z" stroke="white" stroke-width="2"/>
<path d="M332.875 162.295H323.135C322.554 162.295 321.987 162.465 321.505 162.785C303.705 174.478 284.508 182.698 263.915 187.445C237.888 193.452 211.922 195.602 186.015 193.895C167.705 192.685 148.855 189.055 132.155 182.905C92.9948 168.505 56.4249 147.185 43.2849 104.935C43.2234 104.744 43.2307 104.537 43.3056 104.351C43.3805 104.165 43.5182 104.01 43.6948 103.915C54.6448 98.035 58.5248 86.135 53.8248 75.005C49.7348 65.345 39.8048 62.115 29.8848 62.125C20.7915 62.125 11.3515 62.125 1.56485 62.125C1.47202 62.125 1.383 62.1629 1.31736 62.2305C1.25172 62.298 1.21484 62.3895 1.21484 62.485V142.615C1.21484 142.764 1.27279 142.906 1.37594 143.011C1.47908 143.116 1.61898 143.175 1.76485 143.175H11.7548C11.8742 143.175 11.9887 143.128 12.073 143.043C12.1574 142.959 12.2048 142.844 12.2048 142.725V108.045C12.2048 107.954 12.223 107.865 12.2586 107.781C12.2941 107.698 12.3461 107.623 12.4116 107.56C12.477 107.498 12.5544 107.449 12.6392 107.417C12.724 107.385 12.8144 107.371 12.9048 107.375C19.2648 107.648 25.0582 107.472 30.2849 106.845C30.4646 106.822 30.6465 106.86 30.8009 106.952C30.9554 107.045 31.0731 107.187 31.1348 107.355C43.3048 139.405 66.8848 163.185 97.3548 179.035C123.068 192.415 149.495 200.118 176.635 202.145C193.248 203.385 209.912 203.165 226.625 201.485C233.712 200.778 243.108 199.498 254.815 197.645C283.845 193.045 309.845 180.365 333.005 162.675C333.041 162.649 333.068 162.611 333.082 162.568C333.095 162.526 333.095 162.479 333.08 162.437C333.066 162.394 333.038 162.358 333.001 162.332C332.964 162.307 332.92 162.294 332.875 162.295Z" stroke="white" stroke-width="2"/>
<path d="M284.796 123.136C297.362 123.196 303.676 123.233 303.736 123.246C303.861 123.267 303.978 123.321 304.077 123.402C304.175 123.482 304.25 123.587 304.296 123.706L311.886 142.826C311.947 142.977 312.052 143.106 312.188 143.197C312.323 143.288 312.482 143.336 312.646 143.336H324.506C324.55 143.337 324.593 143.326 324.632 143.306C324.671 143.285 324.704 143.255 324.728 143.218C324.752 143.181 324.766 143.138 324.769 143.094C324.772 143.05 324.764 143.006 324.746 142.966L290.366 62.806C290.297 62.6468 290.186 62.5099 290.044 62.411C289.903 62.312 289.737 62.2549 289.566 62.246C288.132 62.1727 286.642 62.1327 285.096 62.126C283.542 62.1193 282.052 62.146 280.626 62.206C280.453 62.2122 280.286 62.267 280.143 62.3642C280 62.4614 279.886 62.5972 279.816 62.756L244.646 142.576C244.627 142.616 244.619 142.66 244.622 142.704C244.625 142.748 244.639 142.791 244.663 142.828C244.687 142.865 244.72 142.895 244.759 142.916C244.798 142.936 244.841 142.947 244.886 142.946L256.746 143.056C256.907 143.057 257.066 143.01 257.201 142.921C257.336 142.832 257.442 142.705 257.506 142.556L265.286 123.516C265.332 123.396 265.409 123.29 265.509 123.209C265.609 123.129 265.728 123.076 265.856 123.056C265.916 123.049 272.229 123.076 284.796 123.136Z" stroke="white" stroke-width="2"/>
<path d="M387.924 110.792C387.885 110.853 387.869 110.925 387.877 110.996C387.886 111.067 387.919 111.133 387.971 111.183C388.023 111.233 388.09 111.263 388.162 111.268C388.234 111.273 388.305 111.254 388.364 111.212C389.977 109.979 391.514 109.102 392.974 108.582C398.224 106.712 406.014 110.322 409.824 113.592C413.444 116.702 414.834 120.832 417.224 126.132C420.264 132.892 425.174 138.882 432.094 141.852C434.924 143.062 441.564 145.872 443.974 144.732C444.027 144.707 444.071 144.667 444.1 144.616C444.13 144.565 444.143 144.507 444.139 144.448C444.135 144.39 444.113 144.334 444.076 144.288C444.039 144.243 443.99 144.209 443.934 144.192C442.934 143.852 441.347 142.976 439.174 141.562C434.034 138.212 431.744 133.942 430.644 127.702C429.104 119.002 427.684 111.192 421.384 104.642C410.364 93.1722 395.494 99.6822 387.924 110.792Z" stroke="white" stroke-width="2"/>
<path d="M174.82 21.4229C174.394 21.2108 173.861 21.2246 173.251 21.4635C172.642 21.7025 171.967 22.1618 171.265 22.8155C170.564 23.4691 169.849 24.3041 169.163 25.2729C168.477 26.2417 167.832 27.3252 167.265 28.4617C166.699 29.5982 166.221 30.7653 165.861 31.8964C165.5 33.0275 165.263 34.1005 165.163 35.0541C165.063 36.0077 165.103 36.8232 165.279 37.454C165.455 38.0849 165.765 38.5188 166.19 38.7309C166.616 38.943 167.149 38.9292 167.758 38.6903C168.368 38.4513 169.043 37.9919 169.745 37.3383C170.446 36.6847 171.161 35.8497 171.847 34.8809C172.533 33.9121 173.178 32.8285 173.745 31.6921C174.311 30.5556 174.789 29.3885 175.149 28.2574C175.51 27.1263 175.747 26.0533 175.847 25.0997C175.947 24.1461 175.907 23.3306 175.731 22.6997C175.555 22.0689 175.245 21.635 174.82 21.4229Z" stroke="#D24686" stroke-width="2"/>
<path d="M73.7743 36.7921C74.4676 37.2721 75.9976 36.3321 78.3643 33.9721C80.0143 32.3321 87.7343 23.5421 84.6043 21.3521C81.4743 19.1621 75.8443 29.4021 74.8643 31.5121C73.451 34.5455 73.0876 36.3055 73.7743 36.7921Z" stroke="#D24686" stroke-width="2"/>
<path d="M12.207 72.0403V97.5603C12.207 97.6187 12.2302 97.6746 12.2715 97.7159C12.3127 97.7571 12.3687 97.7803 12.427 97.7803H30.427C34.034 97.7803 37.4932 96.536 40.0437 94.3212C42.5942 92.1064 44.027 89.1025 44.027 85.9703V83.6303C44.027 80.4981 42.5942 77.4942 40.0437 75.2794C37.4932 73.0646 34.034 71.8203 30.427 71.8203H12.427C12.3687 71.8203 12.3127 71.8435 12.2715 71.8848C12.2302 71.926 12.207 71.982 12.207 72.0403Z" stroke="white" stroke-width="2"/>
<path d="M269.346 113.032C269.322 113.085 269.313 113.143 269.318 113.201C269.322 113.259 269.342 113.314 269.373 113.363C269.405 113.412 269.448 113.452 269.499 113.479C269.55 113.507 269.608 113.522 269.666 113.522L299.366 113.572C299.422 113.571 299.478 113.556 299.528 113.529C299.578 113.502 299.62 113.463 299.652 113.416C299.683 113.369 299.703 113.314 299.709 113.258C299.715 113.201 299.707 113.144 299.686 113.092L284.906 76.8217C284.88 76.7567 284.835 76.701 284.777 76.6618C284.719 76.6225 284.651 76.6016 284.581 76.6016C284.511 76.6016 284.442 76.6225 284.384 76.6618C284.326 76.701 284.282 76.7567 284.256 76.8217L269.346 113.032Z" stroke="white" stroke-width="2"/>
<path d="M69.6155 26.0187C69.7362 25.9818 69.8647 25.9777 69.9875 26.0069C70.1103 26.0361 70.2228 26.0976 70.313 26.1847C70.4032 26.2719 70.4678 26.3814 70.5 26.5019C70.5321 26.6223 70.5306 26.7491 70.4955 26.8687C68.7155 33.2987 58.7055 42.0587 52.7855 43.7087C52.4331 43.8067 52.0646 43.8337 51.7015 43.7881C51.3383 43.7425 50.9876 43.6252 50.6696 43.4429C50.3517 43.2607 50.0727 43.0172 49.8489 42.7264C49.625 42.4356 49.4608 42.1033 49.3655 41.7487C48.0555 36.8387 50.0255 30.0787 51.5155 25.2887C51.5524 25.1754 51.5521 25.0533 51.5147 24.9402C51.4774 24.827 51.405 24.7288 51.3079 24.6596C51.2109 24.5905 51.0944 24.5541 50.9753 24.5557C50.8561 24.5573 50.7406 24.5969 50.6455 24.6687C44.3055 29.342 39.0022 35.1754 34.7355 42.1687C34.3565 42.7916 33.7662 43.2575 33.0723 43.4814C32.3785 43.7054 31.6272 43.6725 30.9555 43.3887L30.1255 43.0287C29.7105 42.8534 29.3791 42.5248 29.2003 42.1113C29.0215 41.6977 29.009 41.2312 29.1655 40.8087C29.5755 39.6987 30.9555 37.9387 31.5855 35.9087C34.0055 28.1154 36.3222 20.9854 38.5355 14.5187C38.5558 14.4591 38.5624 14.3956 38.5548 14.3332C38.5473 14.2708 38.5257 14.2111 38.4919 14.1589C38.458 14.1067 38.4128 14.0632 38.3596 14.032C38.3065 14.0007 38.2469 13.9825 38.1855 13.9787L26.3555 12.9087C26.289 12.9031 26.2225 12.9183 26.1651 12.9524C26.1077 12.9865 26.0624 13.0376 26.0355 13.0987C23.0055 19.9087 17.5755 27.8387 15.1555 35.8887C15.026 36.3269 15.0651 36.7975 15.2652 37.2069C15.4653 37.6164 15.8117 37.9347 16.2355 38.0987L20.1455 39.5987C20.2708 39.6492 20.3791 39.7351 20.4568 39.8459C20.5344 39.9566 20.5781 40.0873 20.5824 40.2216C20.5867 40.3559 20.5513 40.4879 20.4807 40.6012C20.4102 40.7145 20.3075 40.804 20.1855 40.8587C16.7855 42.4087 12.6955 41.9687 9.43553 43.1887C7.41553 43.9487 5.70553 43.5887 4.43553 42.0787C4.32796 41.954 4.25938 41.7998 4.23808 41.6347C4.21678 41.4696 4.24368 41.3008 4.31554 41.1487C5.17554 39.3187 7.32554 38.3887 9.06554 37.4687C9.32044 37.3336 9.54394 37.1461 9.72144 36.9187C9.89893 36.6912 10.0264 36.4288 10.0955 36.1487C11.7289 29.6287 14.4022 22.8954 18.1155 15.9487C18.3889 15.4421 18.7489 14.292 19.1955 12.4987C19.216 12.421 19.2191 12.3398 19.2048 12.2606C19.1905 12.1813 19.159 12.106 19.1125 12.0396C19.066 11.9732 19.0056 11.9173 18.9354 11.8757C18.8652 11.8342 18.7868 11.8079 18.7055 11.7987C13.5655 11.2854 9.86554 11.602 7.60554 12.7487C6.01887 13.5554 5.31886 15.1521 5.50553 17.5387C5.51074 17.742 5.45898 17.9427 5.35609 18.1181C5.25321 18.2935 5.1033 18.4367 4.92332 18.5313C4.74335 18.626 4.54047 18.6684 4.33764 18.6538C4.1348 18.6392 3.9401 18.5682 3.77554 18.4487L3.69553 18.3887C2.39363 17.4408 1.4803 16.0512 1.12553 14.4787C-0.584466 6.71872 15.6755 7.12872 19.4755 7.63872C19.7414 7.67191 20.0111 7.63592 20.2583 7.53426C20.5054 7.4326 20.7215 7.26876 20.8855 7.05872C22.1122 5.46538 23.4355 4.50538 24.8555 4.17872C25.02 4.14184 25.1909 4.14435 25.3543 4.18606C25.5176 4.22777 25.6688 4.30748 25.7955 4.41871C26.5822 5.09871 26.9822 6.03871 26.9955 7.23871C27.0003 7.58085 27.125 7.91046 27.348 8.16999C27.571 8.42953 27.878 8.6025 28.2155 8.65872L38.6155 10.3587C38.9714 10.4174 39.3365 10.3665 39.6618 10.2128C39.987 10.0591 40.257 9.80997 40.4355 9.49872L44.8255 1.89871C45.0259 1.54705 45.3402 1.27418 45.7165 1.12512C46.0928 0.976048 46.5087 0.959681 46.8955 1.07871C48.8955 1.69871 49.8889 3.42205 49.8755 6.24872C49.8722 6.42851 49.8323 6.60553 49.7584 6.7689C49.6844 6.93228 49.578 7.07855 49.4455 7.19872C47.1322 9.30538 45.7955 10.772 45.4355 11.5987C43.1289 16.992 41.0789 22.592 39.2855 28.3987C39.2572 28.487 39.2502 28.5808 39.2649 28.6724C39.2796 28.7639 39.3157 28.8507 39.3702 28.9257C39.4248 29.0007 39.4963 29.0618 39.5788 29.1041C39.6614 29.1463 39.7528 29.1684 39.8455 29.1687C40.1722 29.1687 40.4555 29.0487 40.6955 28.8087C44.6755 24.8554 48.6789 21.3754 52.7055 18.3687C54.6122 16.942 56.7089 16.252 58.9955 16.2987C59.1851 16.302 59.3707 16.3529 59.5355 16.4468C59.7003 16.5407 59.8392 16.6746 59.9394 16.8364C60.0397 16.9983 60.0982 17.1829 60.1098 17.3736C60.1213 17.5643 60.0855 17.7551 60.0055 17.9287C57.0255 24.2754 54.9355 30.4587 53.7355 36.4787C53.6882 36.7155 53.702 36.9605 53.7757 37.1905C53.8494 37.4205 53.9806 37.6279 54.1568 37.7931C54.333 37.9582 54.5484 38.0757 54.7826 38.1345C55.0169 38.1932 55.2623 38.1912 55.4955 38.1287C56.7889 37.782 58.1489 37.042 59.5755 35.9087C62.3355 33.7087 65.5589 30.5187 69.2455 26.3387C69.4122 26.152 69.5355 26.0454 69.6155 26.0187Z" fill="#D24686"/>
<path d="M118.655 11.2749C118.64 11.4242 118.591 11.5681 118.512 11.6954C118.432 11.8226 118.325 11.9297 118.198 12.0082C118.071 12.0867 117.928 12.1345 117.78 12.1478C117.632 12.1611 117.483 12.1396 117.345 12.0849C114.271 10.8849 113.048 8.32827 113.675 4.41494C113.781 3.76631 114.129 3.1819 114.648 2.7793C115.168 2.3767 115.82 2.18577 116.475 2.24494L117.245 2.31494C117.826 2.36557 118.362 2.64573 118.738 3.09385C119.113 3.54198 119.295 4.12143 119.245 4.70494L118.655 11.2749Z" fill="#D24686"/>
<path d="M155.026 34.8039V35.2339C155.025 35.4576 154.977 35.6792 154.884 35.8843C154.791 36.0894 154.655 36.2733 154.486 36.4239C151.286 39.2039 142.376 45.1339 138.306 42.3639C135.666 40.5739 136.056 38.6139 137.116 35.5839C138.109 32.7639 139.382 29.0472 140.936 24.4339C140.959 24.3598 140.964 24.2808 140.948 24.2047C140.932 24.1285 140.896 24.0577 140.845 23.9993C140.794 23.9409 140.728 23.8968 140.655 23.8713C140.581 23.8458 140.502 23.8398 140.426 23.8539C139.246 24.0739 138.149 24.2006 137.136 24.2339C136.839 24.245 136.542 24.1828 136.274 24.0535C136.007 23.9242 135.779 23.7324 135.613 23.4977C135.448 23.263 135.35 22.9938 135.332 22.7173C135.313 22.4409 135.373 22.1671 135.506 21.9239C136.616 19.8939 139.626 19.8839 141.816 19.3939C142.104 19.3325 142.372 19.1995 142.596 19.0073C142.82 18.8151 142.992 18.5698 143.096 18.2939L146.546 9.3439C146.671 9.02085 146.865 8.72454 147.116 8.4739C147.856 7.7539 148.582 7.24724 149.296 6.9539C149.747 6.76267 150.253 6.73697 150.724 6.88127C151.195 7.02557 151.603 7.33077 151.876 7.74391C152.256 8.31724 152.409 9.0939 152.336 10.0739C152.329 10.1728 152.302 10.2746 152.256 10.3739L148.746 17.8439C148.705 17.9296 148.687 18.0242 148.693 18.1188C148.699 18.2134 148.728 18.305 148.779 18.3849C148.83 18.4649 148.901 18.5306 148.984 18.5759C149.067 18.6212 149.161 18.6446 149.256 18.6439H161.376C161.457 18.6445 161.538 18.6636 161.611 18.6998C161.684 18.736 161.748 18.7883 161.798 18.8528C161.848 18.9173 161.883 18.9923 161.9 19.0722C161.917 19.152 161.915 19.2347 161.896 19.3139C161.729 19.9739 161.262 20.4106 160.496 20.6239C156.356 21.7772 152.092 22.5972 147.706 23.0839C147.458 23.1149 147.223 23.2085 147.023 23.3556C146.823 23.5028 146.666 23.6986 146.566 23.9239C145.366 26.5739 142.616 33.1339 143.196 36.5839C143.256 36.9479 143.437 37.281 143.711 37.5296C143.985 37.7782 144.336 37.9277 144.706 37.9539C146.752 38.0872 149.869 36.8572 154.056 34.2639C154.152 34.2058 154.262 34.1742 154.375 34.1723C154.487 34.1704 154.599 34.1983 154.697 34.253C154.795 34.3078 154.878 34.3876 154.935 34.4843C154.993 34.581 155.024 34.6913 155.026 34.8039Z" fill="#D24686"/>
<path d="M414.155 95.9563C417.435 87.1863 418.685 76.7263 410.565 70.0363L415.585 58.1263C415.593 58.1108 415.597 58.0938 415.598 58.0763C415.599 58.0588 415.596 58.0412 415.589 58.0244C415.583 58.0076 415.573 57.9921 415.56 57.9787C415.547 57.9652 415.532 57.9542 415.515 57.9463C415.482 57.9313 415.444 57.9291 415.409 57.9402C415.374 57.9512 415.344 57.9748 415.325 58.0063L409.085 69.1563C405.058 67.0963 400.625 66.883 395.785 68.5163C399.218 58.003 401.895 50.8996 403.815 47.2063C407.915 39.3196 413.668 32.553 421.075 26.9063C426.925 22.4463 433.035 20.6963 439.635 18.7163C440.165 18.5508 440.662 18.3008 441.105 17.9763L448.215 12.7063C448.285 12.6533 448.369 12.6225 448.457 12.6178C448.545 12.6131 448.632 12.6347 448.707 12.6799C448.782 12.725 448.842 12.7917 448.879 12.8712C448.916 12.9508 448.929 13.0396 448.915 13.1263L447.715 21.5063C447.616 22.2227 447.619 22.9533 447.725 23.6763C448.212 26.943 448.519 29.6296 448.645 31.7363C449.305 43.0163 444.685 54.5063 438.755 63.6363C437.402 65.723 435.432 67.9096 432.845 70.1963C431.125 71.723 427.592 74.7696 422.245 79.3363C422.222 79.3589 422.207 79.3889 422.204 79.4211C422.2 79.4533 422.208 79.4857 422.226 79.5128C422.244 79.5399 422.27 79.5601 422.301 79.5698C422.332 79.5796 422.365 79.5783 422.395 79.5663C426.528 77.453 430.842 75.5763 435.335 73.9363C439.695 72.343 444.378 72.203 449.385 73.5163C460.295 76.3763 465.975 85.1163 466.685 96.2263C467.318 106.113 464.692 114.426 458.805 121.166C451.825 129.156 443.115 132.336 433.935 125.816C433.798 125.719 433.683 125.593 433.6 125.446C433.518 125.299 433.468 125.135 433.455 124.966C433.269 122.88 433.118 121.29 433.005 120.196C431.845 109.336 424.165 100.006 414.155 95.9563Z" fill="#F1C9DC"/>
<path d="M176.456 15.9246L176.796 17.2846C176.874 17.5902 177.041 17.8625 177.276 18.0646C187.326 26.8346 175.126 41.7946 164.896 43.1946C163.269 43.4146 162.009 43.1346 161.116 42.3546C155.636 37.5746 161.376 27.5946 164.796 22.9846C166.236 21.0446 165.966 17.7946 168.556 17.3246C171.236 16.8246 172.646 13.5146 175.976 15.2946C176.095 15.3604 176.2 15.4505 176.282 15.559C176.365 15.6674 176.424 15.792 176.456 15.9246ZM174.821 21.4206C174.395 21.2085 173.862 21.2223 173.252 21.4612C172.643 21.7002 171.968 22.1596 171.266 22.8132C170.565 23.4668 169.85 24.3018 169.164 25.2706C168.478 26.2394 167.833 27.323 167.266 28.4594C166.7 29.5959 166.222 30.763 165.862 31.8941C165.501 33.0252 165.264 34.0982 165.164 35.0518C165.064 36.0054 165.104 36.8209 165.28 37.4518C165.456 38.0826 165.766 38.5165 166.191 38.7286C166.617 38.9407 167.15 38.9269 167.759 38.688C168.369 38.449 169.044 37.9897 169.746 37.336C170.447 36.6824 171.162 35.8474 171.848 34.8786C172.534 33.9098 173.179 32.8263 173.746 31.6898C174.312 30.5533 174.79 29.3862 175.15 28.2551C175.511 27.124 175.748 26.051 175.848 25.0974C175.948 24.1438 175.908 23.3283 175.732 22.6975C175.556 22.0666 175.246 21.6327 174.821 21.4206Z" fill="#D24686"/>
<path d="M83.5536 34.4746C83.5604 34.387 83.5398 34.2989 83.4948 34.223C83.4498 34.1471 83.3827 34.0871 83.303 34.0517C83.2232 34.0162 83.135 34.0071 83.0507 34.0256C82.9664 34.0441 82.8905 34.0892 82.8336 34.1546C80.4636 36.7746 72.8036 45.1446 69.2536 42.5146C67.3136 41.0746 66.7169 39.1713 67.4636 36.8046C69.6636 29.778 73.6636 23.7746 79.4636 18.7946C80.8436 17.6046 85.9436 14.4146 87.4436 16.5246C87.9636 17.2646 88.5769 17.5646 89.2836 17.4246C90.3969 17.218 91.0636 17.2313 91.2836 17.4646C92.2936 18.5346 92.4636 19.3346 91.8036 20.7046C89.4236 25.6513 88.4069 30.7413 88.7536 35.9746C88.7759 36.2898 88.8689 36.5958 89.0258 36.87C89.1828 37.1442 89.3996 37.3794 89.66 37.5582C89.9205 37.737 90.218 37.8547 90.5302 37.9025C90.8425 37.9504 91.1616 37.9272 91.4636 37.8346C95.3236 36.6346 100.934 29.4246 103.364 25.9446C103.433 25.8416 103.535 25.7638 103.652 25.7227C103.77 25.6816 103.897 25.6794 104.016 25.7164C104.135 25.7534 104.239 25.8276 104.312 25.9282C104.385 26.0287 104.425 26.1502 104.424 26.2746C104.414 31.4246 93.4136 43.7746 88.2136 43.0746C84.1936 42.5246 83.2336 37.9046 83.5536 34.4746ZM73.7736 36.7846C74.4669 37.2646 75.997 36.3246 78.3636 33.9646C80.0136 32.3246 87.7336 23.5346 84.6036 21.3446C81.4736 19.1546 75.8436 29.3946 74.8636 31.5046C73.4503 34.538 73.0869 36.298 73.7736 36.7846Z" fill="#D24686"/>
<path d="M126.686 25.5549C127.113 26.0282 127.056 26.7282 126.516 27.6549C123.563 32.7016 119.136 37.1816 113.236 41.0949C111.536 42.2249 107.086 44.3649 105.096 42.6749C103.009 40.9016 102.383 38.6082 103.216 35.7949C104.296 32.0949 105.326 29.1649 106.276 25.4649C107.209 21.8582 109.243 18.7416 112.376 16.1149C112.655 15.881 113.01 15.7569 113.373 15.7661C113.736 15.7753 114.082 15.9172 114.346 16.1649C115.656 17.3749 115.796 18.5549 114.896 20.2249C112.123 25.3316 109.979 30.6716 108.466 36.2449C108.401 36.4873 108.399 36.7426 108.462 36.9857C108.524 37.2289 108.648 37.4516 108.821 37.632C108.994 37.8124 109.211 37.9444 109.451 38.0151C109.69 38.0857 109.943 38.0925 110.186 38.0349C111.413 37.7482 112.729 37.0616 114.136 35.9749C118.363 32.7282 122.206 29.2516 125.666 25.5449C125.731 25.4752 125.809 25.4199 125.897 25.3824C125.985 25.3449 126.079 25.3261 126.175 25.327C126.271 25.3279 126.366 25.3487 126.454 25.3879C126.542 25.4271 126.621 25.484 126.686 25.5549Z" fill="#D24686"/>
<path d="M394.656 68.8847L386.356 73.9247C382.596 68.818 377.819 65.3047 372.026 63.3847C367.206 61.7847 362.716 61.9247 357.136 61.9847C354.463 62.0113 351.313 61.7113 347.686 61.0847C347.322 61.0198 346.987 60.8453 346.726 60.5847C340.796 54.6147 340.496 47.6447 344.106 40.0647C349.796 28.0947 362.546 21.0247 375.586 21.2147C381.666 21.3013 386.783 23.5047 390.936 27.8247C396.429 33.5447 398.673 40.5913 397.666 48.9647C396.759 56.518 395.756 63.158 394.656 68.8847Z" fill="#F1C9DC"/>
<path d="M379.414 105.568C379.444 104.008 380.014 101.888 379.754 99.8179C378.861 92.8713 375.794 87.6013 370.554 84.008C368.754 82.7746 365.271 81.4946 360.104 80.168C349.314 77.408 339.754 74.428 333.734 64.368C332.487 62.2746 331.664 59.7046 331.264 56.658C331.257 56.6028 331.268 56.5468 331.296 56.4988C331.324 56.4508 331.367 56.4135 331.419 56.3929C331.471 56.3722 331.528 56.3694 331.581 56.3848C331.634 56.4002 331.681 56.433 331.714 56.478C338.884 66.048 348.074 66.778 359.034 66.188C371.414 65.538 384.084 71.648 387.394 84.148C389.414 91.798 385.084 100.438 379.884 105.768C379.846 105.81 379.796 105.839 379.742 105.851C379.687 105.863 379.629 105.858 379.577 105.836C379.526 105.814 379.482 105.776 379.453 105.728C379.423 105.68 379.41 105.624 379.414 105.568Z" fill="white"/>
<path d="M410.565 70.0328C407.285 76.3861 405.141 80.4528 404.135 82.2328C401.795 86.3594 397.928 92.5394 392.535 100.773C387.061 108.179 383.158 113.313 380.825 116.173C372.851 125.959 364.308 135.219 355.195 143.953C354.707 144.421 354.059 144.682 353.385 144.683H346.865C346.814 144.682 346.764 144.666 346.723 144.637C346.681 144.607 346.65 144.566 346.632 144.518C346.615 144.47 346.612 144.418 346.625 144.369C346.638 144.32 346.666 144.276 346.705 144.243C362.651 130.629 376.788 115.529 389.115 98.9428C396.508 89.4361 403.165 79.5061 409.085 69.1528L415.325 58.0028C415.344 57.9712 415.373 57.9477 415.408 57.9367C415.443 57.9256 415.481 57.9278 415.515 57.9428C415.532 57.9507 415.547 57.9617 415.56 57.9751C415.572 57.9885 415.582 58.0041 415.589 58.0209C415.595 58.0376 415.598 58.0553 415.597 58.0728C415.597 58.0903 415.592 58.1073 415.585 58.1228L410.565 70.0328Z" fill="white"/>
<path d="M136.904 106.885H99.0644C98.9742 106.885 98.8877 106.921 98.824 106.985C98.7602 107.048 98.7244 107.135 98.7244 107.225V132.545C98.7244 132.635 98.7602 132.722 98.824 132.785C98.8877 132.849 98.9742 132.885 99.0644 132.885H141.844C141.935 132.885 142.021 132.921 142.085 132.985C142.149 133.048 142.184 133.135 142.184 133.225V142.825C142.184 142.915 142.149 143.002 142.085 143.065C142.021 143.129 141.935 143.165 141.844 143.165H88.0744C87.9842 143.165 87.8977 143.129 87.834 143.065C87.7702 143.002 87.7344 142.915 87.7344 142.825V62.465C87.7344 62.3748 87.7702 62.2883 87.834 62.2246C87.8977 62.1608 87.9842 62.125 88.0744 62.125H139.764C139.855 62.125 139.941 62.1608 140.005 62.2246C140.069 62.2883 140.104 62.3748 140.104 62.465V72.075C140.104 72.1652 140.069 72.2517 140.005 72.3154C139.941 72.3792 139.855 72.415 139.764 72.415H99.0644C99.0197 72.415 98.9755 72.4238 98.9343 72.4409C98.893 72.458 98.8555 72.483 98.824 72.5146C98.7924 72.5462 98.7673 72.5836 98.7503 72.6249C98.7332 72.6661 98.7244 72.7103 98.7244 72.755V96.235C98.7244 96.3252 98.7602 96.4116 98.824 96.4754C98.8877 96.5392 98.9742 96.575 99.0644 96.575H136.904C136.995 96.575 137.081 96.6108 137.145 96.6746C137.209 96.7383 137.244 96.8248 137.244 96.915V106.545C137.244 106.635 137.209 106.722 137.145 106.785C137.081 106.849 136.995 106.885 136.904 106.885Z" fill="white"/>
<path d="M183.315 62.5772V132.427C183.315 132.488 183.327 132.547 183.35 132.603C183.373 132.659 183.407 132.71 183.449 132.752C183.492 132.795 183.543 132.829 183.599 132.852C183.654 132.875 183.714 132.887 183.775 132.887H220.105C220.227 132.887 220.344 132.936 220.43 133.022C220.516 133.108 220.565 133.225 220.565 133.347V142.707C220.565 142.829 220.516 142.946 220.43 143.032C220.344 143.119 220.227 143.167 220.105 143.167H172.765C172.643 143.167 172.526 143.119 172.439 143.032C172.353 142.946 172.305 142.829 172.305 142.707V62.5772C172.305 62.4552 172.353 62.3382 172.439 62.2519C172.526 62.1657 172.643 62.1172 172.765 62.1172H182.855C182.977 62.1172 183.094 62.1657 183.18 62.2519C183.266 62.3382 183.315 62.4552 183.315 62.5772Z" fill="white"/>
<path d="M332.875 162.295C332.92 162.294 332.964 162.307 333.001 162.332C333.038 162.358 333.066 162.394 333.08 162.437C333.095 162.479 333.095 162.526 333.082 162.568C333.068 162.611 333.041 162.649 333.005 162.675C309.845 180.365 283.845 193.045 254.815 197.645C243.108 199.498 233.712 200.778 226.625 201.485C209.912 203.165 193.248 203.385 176.635 202.145C149.495 200.118 123.068 192.415 97.3548 179.035C66.8848 163.185 43.3048 139.405 31.1348 107.355C31.0731 107.187 30.9554 107.045 30.8009 106.952C30.6465 106.86 30.4646 106.822 30.2849 106.845C25.0582 107.472 19.2648 107.648 12.9048 107.375C12.8144 107.371 12.724 107.385 12.6392 107.417C12.5544 107.449 12.477 107.498 12.4116 107.56C12.3461 107.623 12.2941 107.698 12.2586 107.781C12.223 107.865 12.2048 107.954 12.2048 108.045V142.725C12.2048 142.844 12.1574 142.959 12.073 143.043C11.9887 143.128 11.8742 143.175 11.7548 143.175H1.76485C1.61898 143.175 1.47908 143.116 1.37594 143.011C1.27279 142.906 1.21484 142.764 1.21484 142.615V62.485C1.21484 62.3895 1.25172 62.298 1.31736 62.2305C1.383 62.1629 1.47202 62.125 1.56485 62.125C11.3515 62.125 20.7915 62.125 29.8848 62.125C39.8048 62.115 49.7348 65.345 53.8248 75.005C58.5248 86.135 54.6448 98.035 43.6948 103.915C43.5182 104.01 43.3805 104.165 43.3056 104.351C43.2307 104.537 43.2234 104.744 43.2849 104.935C56.4249 147.185 92.9948 168.505 132.155 182.905C148.855 189.055 167.705 192.685 186.015 193.895C211.922 195.602 237.888 193.452 263.915 187.445C284.508 182.698 303.705 174.478 321.505 162.785C321.987 162.465 322.554 162.295 323.135 162.295H332.875ZM12.2048 72.035V97.555C12.2048 97.6134 12.228 97.6693 12.2693 97.7106C12.3105 97.7518 12.3665 97.775 12.4249 97.775H30.4249C34.0318 97.775 37.491 96.5308 40.0415 94.3159C42.592 92.1011 44.0248 89.0972 44.0248 85.965V83.625C44.0248 80.4928 42.592 77.4889 40.0415 75.2741C37.491 73.0593 34.0318 71.815 30.4249 71.815H12.4249C12.3665 71.815 12.3105 71.8382 12.2693 71.8795C12.228 71.9207 12.2048 71.9767 12.2048 72.035Z" fill="white"/>
<path d="M285.096 62.126C286.642 62.1327 288.132 62.1727 289.566 62.246C289.737 62.2549 289.903 62.312 290.044 62.411C290.186 62.5099 290.297 62.6468 290.366 62.806L324.746 142.966C324.764 143.006 324.772 143.05 324.769 143.094C324.766 143.138 324.752 143.181 324.728 143.218C324.704 143.255 324.671 143.285 324.632 143.306C324.593 143.326 324.55 143.337 324.506 143.336H312.646C312.482 143.336 312.323 143.288 312.188 143.197C312.052 143.106 311.947 142.977 311.886 142.826L304.296 123.706C304.25 123.587 304.175 123.482 304.077 123.402C303.978 123.321 303.861 123.267 303.736 123.246C303.676 123.233 297.362 123.196 284.796 123.136C272.229 123.076 265.916 123.049 265.856 123.056C265.728 123.076 265.609 123.129 265.509 123.209C265.409 123.29 265.332 123.396 265.286 123.516L257.506 142.556C257.442 142.705 257.336 142.832 257.201 142.921C257.066 143.01 256.907 143.057 256.746 143.056L244.886 142.946C244.841 142.947 244.798 142.936 244.759 142.916C244.72 142.895 244.687 142.865 244.663 142.828C244.639 142.791 244.625 142.748 244.622 142.704C244.619 142.66 244.627 142.616 244.646 142.576L279.816 62.756C279.886 62.5972 280 62.4614 280.143 62.3642C280.286 62.267 280.453 62.2122 280.626 62.206C282.052 62.146 283.542 62.1193 285.096 62.126ZM269.346 113.026C269.322 113.079 269.313 113.137 269.318 113.195C269.322 113.253 269.342 113.309 269.373 113.357C269.405 113.406 269.448 113.446 269.499 113.474C269.55 113.501 269.607 113.516 269.666 113.516L299.366 113.566C299.422 113.565 299.478 113.551 299.528 113.523C299.578 113.496 299.62 113.457 299.652 113.41C299.683 113.363 299.703 113.309 299.709 113.252C299.715 113.196 299.707 113.139 299.686 113.086L284.906 76.816C284.88 76.751 284.835 76.6953 284.777 76.6561C284.719 76.6169 284.65 76.5959 284.581 76.5959C284.511 76.5959 284.442 76.6169 284.384 76.6561C284.326 76.6953 284.282 76.751 284.256 76.816L269.346 113.026Z" fill="white"/>
<path d="M409.085 69.1532C403.165 79.5065 396.509 89.4365 389.115 98.9432C392.389 89.5698 391.469 81.2298 386.355 73.9232L394.655 68.8832C394.982 68.9032 395.359 68.7798 395.785 68.5132C400.625 66.8798 405.059 67.0932 409.085 69.1532Z" fill="#D24686"/>
<path d="M410.565 70.0391C418.685 76.7291 417.435 87.1891 414.155 95.9591C409.888 95.4391 407.208 95.1924 406.115 95.2191C402.268 95.3124 397.742 97.1657 392.535 100.779C397.928 92.5457 401.795 86.3657 404.135 82.2391C405.142 80.4591 407.285 76.3924 410.565 70.0391Z" fill="#D24686"/>
<path d="M387.924 110.784C395.494 99.6744 410.364 93.1644 421.384 104.634C427.684 111.184 429.104 118.994 430.644 127.694C431.744 133.934 434.034 138.204 439.174 141.554C441.347 142.968 442.934 143.844 443.934 144.184C443.99 144.201 444.039 144.235 444.076 144.281C444.113 144.326 444.135 144.382 444.139 144.441C444.143 144.499 444.13 144.558 444.1 144.608C444.071 144.659 444.027 144.699 443.974 144.724C441.564 145.864 434.924 143.054 432.094 141.844C425.174 138.874 420.264 132.884 417.224 126.124C414.834 120.824 413.444 116.694 409.824 113.584C406.014 110.314 398.224 106.704 392.974 108.574C391.514 109.094 389.977 109.971 388.364 111.204C388.305 111.246 388.234 111.265 388.162 111.26C388.09 111.255 388.023 111.225 387.971 111.175C387.919 111.126 387.886 111.06 387.877 110.988C387.869 110.917 387.885 110.845 387.924 110.784Z" fill="white"/>
</svg>
